<svg width="800" height="800" viewBox="0 0 800 800" fill="none" xmlns="http://www.w3.org/2000/svg">
<path fill-rule="evenodd" clip-rule="evenodd" d="M716.672 716.801C691.648 741.761 651.104 741.761 626.048 716.801L399.489 490.239L172.928 716.801C147.904 741.761 107.328 741.761 82.304 716.801C57.28 691.521 57.28 651.202 82.304 625.922L308.865 399.36L82.304 172.801C57.28 147.841 57.28 107.199 82.304 82.2386C107.328 57.2786 147.904 57.2786 172.928 82.2386L399.489 308.801L626.048 82.2386C651.104 57.2786 691.648 57.2786 716.672 82.2386C741.728 107.199 741.728 147.841 716.672 172.801L490.113 399.36L716.672 625.922C741.728 651.202 741.728 691.521 716.672 716.801ZM580.737 399.36L762.016 218.239C812.032 168.319 812.032 87.0414 762.016 37.1214C711.936 -13.1186 630.785 -13.1186 580.737 37.1214L399.489 218.239L218.241 37.1214C168.225 -13.1186 87.0725 -13.1186 36.9925 37.1214C-13.0235 87.0414 -13.0235 168.319 36.9925 218.239L218.241 399.36L36.9925 580.801C-13.0235 630.721 -13.0235 712.002 36.9925 761.922C87.0725 812.162 168.225 812.162 218.241 761.922L399.489 580.801L580.737 761.922C630.785 812.162 711.936 812.162 762.016 761.922C812.032 712.002 812.032 630.721 762.016 580.801L580.737 399.36Z" fill="white"/>
</svg>
