<svg width="294" height="200" viewBox="0 0 294 200" fill="none" xmlns="http://www.w3.org/2000/svg">
<rect width="294" height="200" fill="#1E1E1E"/>
<rect x="0.5" y="0.5" width="293" height="199" stroke="black"/>
<path d="M64 24.5V146H92.8696V54.2L64 24.5Z" fill="#303392"/>
<path d="M103.696 52.4L73.9239 20H183.087L154.217 52.4H140.685V146H117.228V52.4H103.696Z" fill="#303392"/>
<path d="M230 20H198.424L165.946 52.4V146H230V120.8H188.5V94.7H220.076V74.9H188.5V50.6H230V20Z" fill="#303392"/>
<path d="M73.9239 20L103.696 52.4H117.228V146H140.685V52.4H154.217L183.087 20H73.4728M64 146V24.5L92.8696 54.2V146H64ZM198.424 20H230V50.6H188.5V74.9H220.076V94.7H188.5V120.8H230V146H165.946V52.4L198.424 20Z" stroke="#303392"/>
<path d="M30.8818 175.059C30.8428 175.02 30.8232 174.941 30.8232 174.824C30.8232 174.619 30.8379 174.517 30.8672 174.517C30.9453 174.517 31.0576 174.497 31.2041 174.458C31.3506 174.419 31.4873 174.37 31.6143 174.312C31.7412 174.253 31.8145 174.199 31.834 174.15C31.873 174.014 31.8975 173.848 31.9072 173.652C31.9268 173.457 31.9365 173.232 31.9365 172.979V167.354C31.9365 166.729 31.8975 166.348 31.8193 166.211C31.79 166.152 31.7119 166.099 31.585 166.05C31.4678 165.991 31.3457 165.942 31.2188 165.903C31.0918 165.864 30.9893 165.845 30.9111 165.845C30.8721 165.845 30.8525 165.762 30.8525 165.596C30.8525 165.42 30.8623 165.322 30.8818 165.303L31.585 165.347C31.7998 165.366 31.9756 165.381 32.1123 165.391C32.249 165.4 32.3809 165.405 32.5078 165.405C32.6445 165.396 32.8105 165.391 33.0059 165.391C33.2012 165.391 33.8848 165.361 35.0566 165.303C35.0859 165.391 35.1006 165.479 35.1006 165.566C35.1006 165.752 35.0811 165.845 35.042 165.845C34.9834 165.845 34.8809 165.864 34.7344 165.903C34.5879 165.942 34.4463 165.991 34.3096 166.05C34.1826 166.099 34.1094 166.147 34.0898 166.196C34.0605 166.313 34.0361 166.479 34.0166 166.694C33.9971 166.899 33.9873 167.075 33.9873 167.222V172.861C33.9873 173.135 33.9971 173.379 34.0166 173.594C34.0361 173.809 34.0654 173.994 34.1045 174.15C34.124 174.189 34.1924 174.238 34.3096 174.297C34.4365 174.355 34.5684 174.409 34.7051 174.458C34.8516 174.497 34.9541 174.517 35.0127 174.517C35.0518 174.517 35.0713 174.609 35.0713 174.795C35.0713 174.893 35.0615 174.98 35.042 175.059C35.0029 175.059 34.9102 175.054 34.7637 175.044C34.6172 175.034 34.417 175.02 34.1631 175C33.9092 174.98 33.6846 174.966 33.4893 174.956C33.2939 174.946 33.1328 174.941 33.0059 174.941C32.8301 174.941 32.5908 174.951 32.2881 174.971C31.9854 174.99 31.6973 175.005 31.4238 175.015C31.1602 175.034 30.9795 175.049 30.8818 175.059ZM44.71 175.073C44.6025 175.073 44.4512 174.961 44.2559 174.736L38.2939 167.324V172.935C38.2939 173.452 38.333 173.799 38.4111 173.975C38.4697 174.082 38.5869 174.18 38.7627 174.268C38.9385 174.346 39.1191 174.404 39.3047 174.443C39.4902 174.482 39.6318 174.502 39.7295 174.502C39.749 174.502 39.7637 174.546 39.7734 174.634C39.7832 174.712 39.7881 174.795 39.7881 174.883C39.7881 174.971 39.7783 175.029 39.7588 175.059C39.29 175.059 38.8896 175.039 38.5576 175C38.2354 174.961 37.9766 174.941 37.7812 174.941C37.5469 174.941 37.3613 174.946 37.2246 174.956C37.0879 174.966 36.9316 174.98 36.7559 175C36.5898 175.02 36.3262 175.039 35.9648 175.059C35.9355 175.029 35.9209 174.941 35.9209 174.795C35.9209 174.609 35.9355 174.517 35.9648 174.517C36.1895 174.517 36.4238 174.473 36.668 174.385C36.9219 174.287 37.1025 174.146 37.21 173.96C37.3076 173.804 37.3564 173.447 37.3564 172.891V167.134C37.3564 166.626 37.2832 166.279 37.1367 166.094C37.1074 166.045 37.0146 166.006 36.8584 165.977C36.7119 165.938 36.5508 165.908 36.375 165.889C36.209 165.859 36.0771 165.845 35.9795 165.845C35.96 165.845 35.9404 165.806 35.9209 165.728C35.9111 165.649 35.9062 165.566 35.9062 165.479C35.916 165.381 35.9307 165.322 35.9502 165.303L36.8877 165.361C37.1123 165.381 37.3125 165.396 37.4883 165.405C37.6738 165.415 37.8301 165.42 37.957 165.42C38.123 165.42 38.3232 165.41 38.5576 165.391C38.8018 165.371 39.0801 165.342 39.3926 165.303C39.5879 165.693 39.8564 166.123 40.1982 166.592C40.5498 167.061 40.9404 167.559 41.3701 168.086C41.8096 168.604 42.2588 169.141 42.7178 169.697C43.1865 170.254 43.6309 170.811 44.0508 171.367C44.0605 171.328 44.0654 171.26 44.0654 171.162C44.0752 171.064 44.0801 170.933 44.0801 170.767V167.324C44.0801 166.758 44.0166 166.406 43.8896 166.27C43.8311 166.191 43.7236 166.123 43.5674 166.064C43.4209 165.996 43.2646 165.942 43.0986 165.903C42.9424 165.864 42.8252 165.845 42.7471 165.845C42.7275 165.845 42.708 165.806 42.6885 165.728C42.6787 165.649 42.6738 165.566 42.6738 165.479C42.6738 165.381 42.6836 165.322 42.7031 165.303C43.1523 165.342 43.5381 165.371 43.8604 165.391C44.1826 165.41 44.4414 165.42 44.6367 165.42C44.8027 165.42 45.0127 165.41 45.2666 165.391C45.5205 165.371 45.7598 165.352 45.9844 165.332C46.2188 165.312 46.375 165.303 46.4531 165.303C46.4922 165.371 46.5117 165.459 46.5117 165.566C46.5117 165.752 46.4873 165.845 46.4385 165.845C45.9111 165.845 45.5059 166.006 45.2227 166.328C45.0859 166.494 45.0176 166.851 45.0176 167.397V172.964C45.0176 173.14 45.0225 173.398 45.0322 173.74C45.042 174.082 45.0566 174.507 45.0762 175.015C45.0371 175.054 44.915 175.073 44.71 175.073ZM47.3467 175.059C47.3076 175.02 47.2881 174.937 47.2881 174.81C47.2881 174.614 47.3076 174.517 47.3467 174.517C47.4248 174.517 47.5371 174.502 47.6836 174.473C47.8301 174.443 47.9668 174.404 48.0938 174.355C48.2207 174.297 48.2939 174.243 48.3135 174.194C48.3721 173.97 48.4014 173.54 48.4014 172.905V167.368C48.4014 166.821 48.3721 166.44 48.3135 166.226C48.2939 166.167 48.2158 166.108 48.0791 166.05C47.9521 165.981 47.8154 165.928 47.6689 165.889C47.5225 165.84 47.4102 165.815 47.332 165.815C47.293 165.815 47.2734 165.728 47.2734 165.552C47.2734 165.396 47.2881 165.303 47.3174 165.273C47.7568 165.293 48.1572 165.312 48.5186 165.332C48.8799 165.342 49.1973 165.347 49.4707 165.347C50.1055 165.347 50.9258 165.332 51.9316 165.303C52.4395 165.293 52.8789 165.288 53.25 165.288C53.6309 165.278 53.9482 165.273 54.2021 165.273C54.2119 165.322 54.251 165.527 54.3193 165.889C54.3877 166.25 54.4902 166.768 54.627 167.441C54.5781 167.49 54.4658 167.515 54.29 167.515C54.1826 167.515 54.1143 167.48 54.085 167.412C53.9678 167.158 53.792 166.934 53.5576 166.738C53.333 166.533 53.084 166.372 52.8105 166.255C52.5469 166.128 52.2881 166.064 52.0342 166.064H51.4775C50.8525 166.064 50.5352 166.128 50.5254 166.255C50.5059 166.372 50.4863 166.528 50.4668 166.724C50.457 166.909 50.4521 167.134 50.4521 167.397V169.653C50.4521 169.712 50.6621 169.741 51.082 169.741H51.8584C52.4736 169.741 52.8057 169.722 52.8545 169.683C52.9033 169.634 52.9424 169.492 52.9717 169.258C52.9912 169.102 53.0205 168.96 53.0596 168.833C53.0693 168.765 53.1426 168.73 53.2793 168.73C53.4453 168.73 53.5527 168.755 53.6016 168.804V171.572C53.5625 171.611 53.46 171.631 53.2939 171.631C53.167 171.631 53.0889 171.592 53.0596 171.514C52.9424 171.133 52.8643 170.898 52.8252 170.811C52.7861 170.742 52.7568 170.713 52.7373 170.723C52.7275 170.723 52.6982 170.703 52.6494 170.664C52.5127 170.586 52.1318 170.547 51.5068 170.547C50.8037 170.547 50.4521 170.591 50.4521 170.679V172.935C50.4521 173.452 50.4863 173.853 50.5547 174.136C50.5742 174.214 50.6572 174.282 50.8037 174.341C50.9502 174.399 51.1113 174.443 51.2871 174.473C51.4629 174.502 51.5996 174.517 51.6973 174.517C51.7363 174.517 51.7559 174.609 51.7559 174.795C51.7559 174.893 51.7461 174.98 51.7266 175.059C50.5547 175 49.8076 174.971 49.4854 174.971L47.3467 175.059ZM55.4326 175.059C55.3936 175.02 55.374 174.941 55.374 174.824C55.374 174.619 55.3887 174.517 55.418 174.517C55.4961 174.517 55.6084 174.497 55.7549 174.458C55.9014 174.419 56.0381 174.37 56.165 174.312C56.292 174.253 56.3652 174.199 56.3848 174.15C56.4238 174.014 56.4482 173.848 56.458 173.652C56.4775 173.457 56.4873 173.232 56.4873 172.979V167.354C56.4873 166.729 56.4482 166.348 56.3701 166.211C56.3408 166.152 56.2627 166.099 56.1357 166.05C56.0186 165.991 55.8965 165.942 55.7695 165.903C55.6426 165.864 55.54 165.845 55.4619 165.845C55.4229 165.845 55.4033 165.762 55.4033 165.596C55.4033 165.42 55.4131 165.322 55.4326 165.303L56.1357 165.347C56.3506 165.366 56.5264 165.381 56.6631 165.391C56.7998 165.4 56.9316 165.405 57.0586 165.405C57.1953 165.396 57.3613 165.391 57.5566 165.391C57.752 165.391 58.4355 165.361 59.6074 165.303C59.6367 165.391 59.6514 165.479 59.6514 165.566C59.6514 165.752 59.6318 165.845 59.5928 165.845C59.5342 165.845 59.4316 165.864 59.2852 165.903C59.1387 165.942 58.9971 165.991 58.8604 166.05C58.7334 166.099 58.6602 166.147 58.6406 166.196C58.6113 166.313 58.5869 166.479 58.5674 166.694C58.5479 166.899 58.5381 167.075 58.5381 167.222V172.861C58.5381 173.135 58.5479 173.379 58.5674 173.594C58.5869 173.809 58.6162 173.994 58.6553 174.15C58.6748 174.189 58.7432 174.238 58.8604 174.297C58.9873 174.355 59.1191 174.409 59.2559 174.458C59.4023 174.497 59.5049 174.517 59.5635 174.517C59.6025 174.517 59.6221 174.609 59.6221 174.795C59.6221 174.893 59.6123 174.98 59.5928 175.059C59.5537 175.059 59.4609 175.054 59.3145 175.044C59.168 175.034 58.9678 175.02 58.7139 175C58.46 174.98 58.2354 174.966 58.04 174.956C57.8447 174.946 57.6836 174.941 57.5566 174.941C57.3809 174.941 57.1416 174.951 56.8389 174.971C56.5361 174.99 56.248 175.005 55.9746 175.015C55.7109 175.034 55.5303 175.049 55.4326 175.059ZM69.2607 175.073C69.1533 175.073 69.002 174.961 68.8066 174.736L62.8447 167.324V172.935C62.8447 173.452 62.8838 173.799 62.9619 173.975C63.0205 174.082 63.1377 174.18 63.3135 174.268C63.4893 174.346 63.6699 174.404 63.8555 174.443C64.041 174.482 64.1826 174.502 64.2803 174.502C64.2998 174.502 64.3145 174.546 64.3242 174.634C64.334 174.712 64.3389 174.795 64.3389 174.883C64.3389 174.971 64.3291 175.029 64.3096 175.059C63.8408 175.059 63.4404 175.039 63.1084 175C62.7861 174.961 62.5273 174.941 62.332 174.941C62.0977 174.941 61.9121 174.946 61.7754 174.956C61.6387 174.966 61.4824 174.98 61.3066 175C61.1406 175.02 60.877 175.039 60.5156 175.059C60.4863 175.029 60.4717 174.941 60.4717 174.795C60.4717 174.609 60.4863 174.517 60.5156 174.517C60.7402 174.517 60.9746 174.473 61.2188 174.385C61.4727 174.287 61.6533 174.146 61.7607 173.96C61.8584 173.804 61.9072 173.447 61.9072 172.891V167.134C61.9072 166.626 61.834 166.279 61.6875 166.094C61.6582 166.045 61.5654 166.006 61.4092 165.977C61.2627 165.938 61.1016 165.908 60.9258 165.889C60.7598 165.859 60.6279 165.845 60.5303 165.845C60.5107 165.845 60.4912 165.806 60.4717 165.728C60.4619 165.649 60.457 165.566 60.457 165.479C60.4668 165.381 60.4814 165.322 60.501 165.303L61.4385 165.361C61.6631 165.381 61.8633 165.396 62.0391 165.405C62.2246 165.415 62.3809 165.42 62.5078 165.42C62.6738 165.42 62.874 165.41 63.1084 165.391C63.3525 165.371 63.6309 165.342 63.9434 165.303C64.1387 165.693 64.4072 166.123 64.749 166.592C65.1006 167.061 65.4912 167.559 65.9209 168.086C66.3604 168.604 66.8096 169.141 67.2686 169.697C67.7373 170.254 68.1816 170.811 68.6016 171.367C68.6113 171.328 68.6162 171.26 68.6162 171.162C68.626 171.064 68.6309 170.933 68.6309 170.767V167.324C68.6309 166.758 68.5674 166.406 68.4404 166.27C68.3818 166.191 68.2744 166.123 68.1182 166.064C67.9717 165.996 67.8154 165.942 67.6494 165.903C67.4932 165.864 67.376 165.845 67.2979 165.845C67.2783 165.845 67.2588 165.806 67.2393 165.728C67.2295 165.649 67.2246 165.566 67.2246 165.479C67.2246 165.381 67.2344 165.322 67.2539 165.303C67.7031 165.342 68.0889 165.371 68.4111 165.391C68.7334 165.41 68.9922 165.42 69.1875 165.42C69.3535 165.42 69.5635 165.41 69.8174 165.391C70.0713 165.371 70.3105 165.352 70.5352 165.332C70.7695 165.312 70.9258 165.303 71.0039 165.303C71.043 165.371 71.0625 165.459 71.0625 165.566C71.0625 165.752 71.0381 165.845 70.9893 165.845C70.4619 165.845 70.0566 166.006 69.7734 166.328C69.6367 166.494 69.5684 166.851 69.5684 167.397V172.964C69.5684 173.14 69.5732 173.398 69.583 173.74C69.5928 174.082 69.6074 174.507 69.627 175.015C69.5879 175.054 69.4658 175.073 69.2607 175.073ZM71.8828 175.059C71.8438 175.02 71.8242 174.941 71.8242 174.824C71.8242 174.619 71.8389 174.517 71.8682 174.517C71.9463 174.517 72.0586 174.497 72.2051 174.458C72.3516 174.419 72.4883 174.37 72.6152 174.312C72.7422 174.253 72.8154 174.199 72.835 174.15C72.874 174.014 72.8984 173.848 72.9082 173.652C72.9277 173.457 72.9375 173.232 72.9375 172.979V167.354C72.9375 166.729 72.8984 166.348 72.8203 166.211C72.791 166.152 72.7129 166.099 72.5859 166.05C72.4688 165.991 72.3467 165.942 72.2197 165.903C72.0928 165.864 71.9902 165.845 71.9121 165.845C71.873 165.845 71.8535 165.762 71.8535 165.596C71.8535 165.42 71.8633 165.322 71.8828 165.303L72.5859 165.347C72.8008 165.366 72.9766 165.381 73.1133 165.391C73.25 165.4 73.3818 165.405 73.5088 165.405C73.6455 165.396 73.8115 165.391 74.0068 165.391C74.2021 165.391 74.8857 165.361 76.0576 165.303C76.0869 165.391 76.1016 165.479 76.1016 165.566C76.1016 165.752 76.082 165.845 76.043 165.845C75.9844 165.845 75.8818 165.864 75.7354 165.903C75.5889 165.942 75.4473 165.991 75.3105 166.05C75.1836 166.099 75.1104 166.147 75.0908 166.196C75.0615 166.313 75.0371 166.479 75.0176 166.694C74.998 166.899 74.9883 167.075 74.9883 167.222V172.861C74.9883 173.135 74.998 173.379 75.0176 173.594C75.0371 173.809 75.0664 173.994 75.1055 174.15C75.125 174.189 75.1934 174.238 75.3105 174.297C75.4375 174.355 75.5693 174.409 75.7061 174.458C75.8525 174.497 75.9551 174.517 76.0137 174.517C76.0527 174.517 76.0723 174.609 76.0723 174.795C76.0723 174.893 76.0625 174.98 76.043 175.059C76.0039 175.059 75.9111 175.054 75.7646 175.044C75.6182 175.034 75.418 175.02 75.1641 175C74.9102 174.98 74.6855 174.966 74.4902 174.956C74.2949 174.946 74.1338 174.941 74.0068 174.941C73.8311 174.941 73.5918 174.951 73.2891 174.971C72.9863 174.99 72.6982 175.005 72.4248 175.015C72.1611 175.034 71.9805 175.049 71.8828 175.059ZM79.2656 175.059C79.2266 175.02 79.207 174.941 79.207 174.824C79.207 174.619 79.2217 174.517 79.251 174.517C79.3291 174.517 79.4414 174.497 79.5879 174.458C79.7344 174.419 79.8711 174.37 79.998 174.312C80.125 174.253 80.1982 174.199 80.2178 174.15C80.2568 174.014 80.2812 173.853 80.291 173.667C80.3105 173.481 80.3203 173.267 80.3203 173.022V167.72C80.3203 166.958 80.2812 166.509 80.2031 166.372L80.1299 166.24C80.0908 166.201 79.9639 166.172 79.749 166.152C79.5342 166.123 79.2852 166.108 79.002 166.108C78.6016 166.108 78.2744 166.221 78.0205 166.445C77.7666 166.66 77.5713 167.026 77.4346 167.544C77.415 167.593 77.3662 167.617 77.2881 167.617C77.0732 167.617 76.9316 167.583 76.8633 167.515L77.1416 165.127C77.3564 165.176 77.5469 165.215 77.7129 165.244C77.8789 165.273 78.0254 165.288 78.1523 165.288C78.6504 165.288 79.1826 165.303 79.749 165.332C80.3252 165.361 80.8623 165.376 81.3604 165.376C81.8584 165.376 82.3955 165.361 82.9717 165.332C83.5479 165.303 84.085 165.288 84.583 165.288C84.71 165.288 84.8564 165.273 85.0225 165.244C85.1885 165.215 85.3789 165.176 85.5938 165.127L85.8721 167.529C85.8037 167.598 85.6621 167.632 85.4473 167.632C85.3691 167.632 85.3203 167.607 85.3008 167.559C85.0566 166.592 84.5342 166.108 83.7334 166.108C82.9521 166.108 82.5371 166.196 82.4883 166.372C82.4492 166.509 82.4199 166.685 82.4004 166.899C82.3809 167.114 82.3711 167.373 82.3711 167.676V172.964C82.3711 173.208 82.3809 173.428 82.4004 173.623C82.4199 173.818 82.4492 173.994 82.4883 174.15C82.5078 174.189 82.5762 174.238 82.6934 174.297C82.8203 174.355 82.9521 174.409 83.0889 174.458C83.2354 174.497 83.3379 174.517 83.3965 174.517C83.4355 174.517 83.4551 174.609 83.4551 174.795C83.4551 174.893 83.4453 174.98 83.4258 175.059C83.3867 175.059 83.2939 175.054 83.1475 175.044C83.001 175.034 82.8008 175.02 82.5469 175C82.293 174.98 82.0684 174.966 81.873 174.956C81.6777 174.946 81.5166 174.941 81.3896 174.941C81.2139 174.941 80.9746 174.951 80.6719 174.971C80.3691 174.99 80.0811 175.005 79.8076 175.015C79.5439 175.034 79.3633 175.049 79.2656 175.059ZM89.1094 175.059C89.0703 175.02 89.0508 174.941 89.0508 174.824C89.0508 174.619 89.0654 174.517 89.0947 174.517C89.1729 174.517 89.2852 174.497 89.4316 174.458C89.5781 174.419 89.7148 174.37 89.8418 174.312C89.9688 174.253 90.042 174.199 90.0615 174.15C90.1299 173.906 90.1641 173.511 90.1641 172.964V170.474C90.1641 170.396 90.0127 170.083 89.71 169.536L88.7871 167.91L88.333 167.134C88.167 166.841 88.0205 166.606 87.8936 166.431C87.7666 166.245 87.6494 166.123 87.542 166.064C87.2979 165.918 87.0391 165.845 86.7656 165.845C86.7266 165.845 86.707 165.762 86.707 165.596C86.707 165.439 86.7266 165.342 86.7656 165.303C87.1367 165.322 87.5078 165.342 87.8789 165.361C88.25 165.381 88.5723 165.391 88.8457 165.391C89.0703 165.391 89.7686 165.361 90.9404 165.303C90.96 165.322 90.9697 165.381 90.9697 165.479C90.9697 165.566 90.9648 165.649 90.9551 165.728C90.9453 165.806 90.9307 165.845 90.9111 165.845C90.7646 165.845 90.5986 165.874 90.4131 165.933C90.2373 165.981 90.1445 166.055 90.1348 166.152C90.1348 166.23 90.1738 166.338 90.252 166.475L91.7168 169.067C91.7754 169.116 91.8242 169.106 91.8633 169.038C92.0098 168.833 92.1709 168.584 92.3467 168.291C92.5322 167.998 92.708 167.705 92.874 167.412C93.04 167.119 93.1768 166.86 93.2842 166.636C93.4014 166.401 93.46 166.245 93.46 166.167C93.46 165.952 93.1475 165.845 92.5225 165.845C92.5029 165.845 92.4834 165.806 92.4639 165.728C92.4541 165.649 92.4541 165.566 92.4639 165.479C92.4736 165.381 92.4883 165.322 92.5078 165.303C93.3867 165.361 93.9775 165.391 94.2803 165.391C94.5342 165.391 95.0859 165.361 95.9355 165.303C95.9648 165.391 95.9795 165.479 95.9795 165.566C95.9795 165.742 95.96 165.83 95.9209 165.83C95.7451 165.83 95.5449 165.874 95.3203 165.962C95.0957 166.05 94.915 166.182 94.7783 166.357C94.6807 166.494 94.5293 166.719 94.3242 167.031C94.1191 167.334 93.8945 167.676 93.6504 168.057C93.416 168.438 93.1865 168.809 92.9619 169.17C92.7471 169.531 92.5664 169.839 92.4199 170.093C92.2832 170.347 92.2148 170.498 92.2148 170.547V172.876C92.2148 173.149 92.2246 173.394 92.2441 173.608C92.2637 173.813 92.293 173.994 92.332 174.15C92.3516 174.189 92.4199 174.238 92.5371 174.297C92.6641 174.355 92.7959 174.409 92.9326 174.458C93.0791 174.497 93.1816 174.517 93.2402 174.517C93.2793 174.517 93.2988 174.609 93.2988 174.795C93.2988 174.893 93.2891 174.98 93.2695 175.059C93.2305 175.059 93.1377 175.054 92.9912 175.044C92.8447 175.034 92.6445 175.02 92.3906 175C92.1367 174.98 91.9121 174.966 91.7168 174.956C91.5215 174.946 91.3604 174.941 91.2334 174.941C91.0576 174.941 90.8184 174.951 90.5156 174.971C90.2129 174.99 89.9248 175.005 89.6514 175.015C89.3877 175.034 89.207 175.049 89.1094 175.059ZM101.868 175.059C101.829 175.02 101.81 174.941 101.81 174.824C101.81 174.619 101.824 174.517 101.854 174.517C101.932 174.517 102.044 174.497 102.19 174.458C102.337 174.419 102.474 174.37 102.601 174.312C102.728 174.253 102.801 174.199 102.82 174.15C102.859 174.014 102.884 173.853 102.894 173.667C102.913 173.481 102.923 173.267 102.923 173.022V167.72C102.923 166.958 102.884 166.509 102.806 166.372L102.732 166.24C102.693 166.201 102.566 166.172 102.352 166.152C102.137 166.123 101.888 166.108 101.604 166.108C101.204 166.108 100.877 166.221 100.623 166.445C100.369 166.66 100.174 167.026 100.037 167.544C100.018 167.593 99.9688 167.617 99.8906 167.617C99.6758 167.617 99.5342 167.583 99.4658 167.515L99.7441 165.127C99.959 165.176 100.149 165.215 100.315 165.244C100.481 165.273 100.628 165.288 100.755 165.288C101.253 165.288 101.785 165.303 102.352 165.332C102.928 165.361 103.465 165.376 103.963 165.376C104.461 165.376 104.998 165.361 105.574 165.332C106.15 165.303 106.688 165.288 107.186 165.288C107.312 165.288 107.459 165.273 107.625 165.244C107.791 165.215 107.981 165.176 108.196 165.127L108.475 167.529C108.406 167.598 108.265 167.632 108.05 167.632C107.972 167.632 107.923 167.607 107.903 167.559C107.659 166.592 107.137 166.108 106.336 166.108C105.555 166.108 105.14 166.196 105.091 166.372C105.052 166.509 105.022 166.685 105.003 166.899C104.983 167.114 104.974 167.373 104.974 167.676V172.964C104.974 173.208 104.983 173.428 105.003 173.623C105.022 173.818 105.052 173.994 105.091 174.15C105.11 174.189 105.179 174.238 105.296 174.297C105.423 174.355 105.555 174.409 105.691 174.458C105.838 174.497 105.94 174.517 105.999 174.517C106.038 174.517 106.058 174.609 106.058 174.795C106.058 174.893 106.048 174.98 106.028 175.059C105.989 175.059 105.896 175.054 105.75 175.044C105.604 175.034 105.403 175.02 105.149 175C104.896 174.98 104.671 174.966 104.476 174.956C104.28 174.946 104.119 174.941 103.992 174.941C103.816 174.941 103.577 174.951 103.274 174.971C102.972 174.99 102.684 175.005 102.41 175.015C102.146 175.034 101.966 175.049 101.868 175.059ZM109.31 175.059C109.271 175.02 109.251 174.937 109.251 174.81C109.251 174.614 109.271 174.517 109.31 174.517C109.388 174.517 109.5 174.502 109.646 174.473C109.793 174.443 109.93 174.404 110.057 174.355C110.184 174.297 110.257 174.243 110.276 174.194C110.335 173.97 110.364 173.54 110.364 172.905V167.368C110.364 166.821 110.335 166.44 110.276 166.226C110.257 166.167 110.179 166.108 110.042 166.05C109.915 165.981 109.778 165.928 109.632 165.889C109.485 165.84 109.373 165.815 109.295 165.815C109.256 165.815 109.236 165.728 109.236 165.552C109.236 165.396 109.251 165.303 109.28 165.273C109.671 165.293 110.042 165.312 110.394 165.332C110.755 165.342 111.102 165.347 111.434 165.347C111.863 165.347 112.62 165.332 113.704 165.303C114.251 165.293 114.729 165.288 115.14 165.288C115.55 165.278 115.892 165.273 116.165 165.273C116.175 165.322 116.214 165.527 116.282 165.889C116.351 166.25 116.453 166.768 116.59 167.441C116.541 167.49 116.429 167.515 116.253 167.515C116.146 167.515 116.077 167.48 116.048 167.412C115.931 167.158 115.755 166.934 115.521 166.738C115.296 166.533 115.047 166.372 114.773 166.255C114.51 166.128 114.251 166.064 113.997 166.064H113.44C112.815 166.064 112.498 166.128 112.488 166.255C112.469 166.372 112.449 166.528 112.43 166.724C112.42 166.909 112.415 167.134 112.415 167.397V169.653C112.415 169.712 112.625 169.741 113.045 169.741H113.821C114.437 169.741 114.769 169.722 114.817 169.683C114.866 169.634 114.905 169.492 114.935 169.258C114.954 169.102 114.983 168.96 115.022 168.833C115.032 168.765 115.105 168.73 115.242 168.73C115.408 168.73 115.516 168.755 115.564 168.804V171.572C115.525 171.611 115.423 171.631 115.257 171.631C115.13 171.631 115.052 171.592 115.022 171.514C114.905 171.133 114.827 170.898 114.788 170.811C114.749 170.742 114.72 170.713 114.7 170.723C114.69 170.723 114.661 170.703 114.612 170.664C114.476 170.586 114.095 170.547 113.47 170.547C112.767 170.547 112.415 170.591 112.415 170.679V172.935C112.415 173.394 112.454 173.74 112.532 173.975C112.571 174.131 112.903 174.209 113.528 174.209H113.909C114.515 174.209 115.062 174.082 115.55 173.828C115.716 173.74 115.901 173.574 116.106 173.33C116.321 173.086 116.487 172.812 116.604 172.51C116.624 172.451 116.692 172.422 116.81 172.422C117.044 172.422 117.19 172.451 117.249 172.51C116.761 173.857 116.497 174.697 116.458 175.029C116.214 175.029 115.892 175.024 115.491 175.015C115.101 175.015 114.632 175.01 114.085 175C113.548 174.99 113.06 174.98 112.62 174.971C112.181 174.951 111.79 174.951 111.448 174.971L109.31 175.059ZM122.669 175.103C122.024 175.103 121.419 174.976 120.853 174.722C120.286 174.468 119.788 174.121 119.358 173.682C118.929 173.232 118.592 172.72 118.348 172.144C118.104 171.558 117.981 170.938 117.981 170.283C117.981 169.59 118.104 168.94 118.348 168.335C118.592 167.72 118.929 167.183 119.358 166.724C119.798 166.255 120.311 165.889 120.896 165.625C121.492 165.361 122.132 165.229 122.815 165.229C123.353 165.229 123.899 165.269 124.456 165.347C125.013 165.415 125.584 165.518 126.17 165.654C126.229 165.674 126.292 166.001 126.36 166.636C126.399 166.997 126.429 167.28 126.448 167.485C126.478 167.69 126.468 167.837 126.419 167.925C126.37 168.003 126.253 168.042 126.067 168.042L125.833 167.998C125.784 167.822 125.706 167.637 125.599 167.441C125.491 167.246 125.325 167.036 125.101 166.812C124.886 166.587 124.583 166.406 124.192 166.27C123.802 166.123 123.367 166.05 122.889 166.05C121.141 166.05 120.267 167.358 120.267 169.976C120.267 170.786 120.384 171.523 120.618 172.188C120.862 172.842 121.214 173.359 121.673 173.74C122.142 174.121 122.703 174.312 123.357 174.312C124.08 174.312 124.705 174.048 125.232 173.521C125.389 173.364 125.506 173.188 125.584 172.993C125.672 172.788 125.735 172.607 125.774 172.451C125.823 172.295 125.867 172.217 125.906 172.217C126.307 172.217 126.526 172.266 126.565 172.363C126.565 172.432 126.541 172.578 126.492 172.803C126.453 173.018 126.399 173.257 126.331 173.521C126.272 173.774 126.209 173.999 126.141 174.194C126.072 174.38 126.014 174.482 125.965 174.502C124.852 174.902 123.753 175.103 122.669 175.103ZM127.4 175.059C127.361 175.02 127.342 174.937 127.342 174.81C127.342 174.614 127.352 174.517 127.371 174.517C127.449 174.517 127.562 174.502 127.708 174.473C127.864 174.434 128.006 174.385 128.133 174.326C128.26 174.268 128.333 174.214 128.353 174.165C128.421 173.921 128.455 173.525 128.455 172.979V167.383C128.455 166.768 128.421 166.387 128.353 166.24C128.323 166.162 128.245 166.094 128.118 166.035C128.001 165.977 127.874 165.933 127.737 165.903C127.61 165.864 127.508 165.845 127.43 165.845C127.391 165.845 127.371 165.747 127.371 165.552C127.371 165.405 127.381 165.322 127.4 165.303L129.437 165.391C129.563 165.4 129.803 165.396 130.154 165.376C130.516 165.356 130.989 165.332 131.575 165.303C131.604 165.342 131.619 165.444 131.619 165.61C131.619 165.767 131.6 165.845 131.561 165.845C131.502 165.845 131.399 165.864 131.253 165.903C131.116 165.942 130.979 165.991 130.843 166.05C130.716 166.099 130.643 166.147 130.623 166.196C130.545 166.411 130.506 166.826 130.506 167.441V169.521L130.535 169.565L132.293 169.595C132.43 169.595 132.64 169.595 132.923 169.595C133.206 169.585 133.567 169.575 134.007 169.565C134.026 169.546 134.036 169.526 134.036 169.507V167.383C134.036 166.855 134.002 166.47 133.934 166.226C133.914 166.167 133.841 166.108 133.714 166.05C133.597 165.991 133.47 165.942 133.333 165.903C133.196 165.864 133.089 165.845 133.011 165.845C132.991 165.845 132.972 165.806 132.952 165.728C132.942 165.649 132.942 165.566 132.952 165.479C132.962 165.381 132.977 165.322 132.996 165.303L135.179 165.391C135.325 165.391 135.984 165.361 137.156 165.303C137.186 165.391 137.2 165.479 137.2 165.566C137.2 165.752 137.176 165.845 137.127 165.845C137.068 165.845 136.966 165.864 136.819 165.903C136.683 165.942 136.551 165.991 136.424 166.05C136.297 166.099 136.224 166.147 136.204 166.196C136.165 166.343 136.136 166.519 136.116 166.724C136.097 166.929 136.087 167.168 136.087 167.441V172.92C136.087 173.184 136.097 173.418 136.116 173.623C136.136 173.828 136.165 174.009 136.204 174.165C136.224 174.204 136.292 174.253 136.409 174.312C136.536 174.36 136.668 174.404 136.805 174.443C136.951 174.482 137.054 174.502 137.112 174.502C137.151 174.502 137.171 174.604 137.171 174.81C137.171 174.888 137.156 174.971 137.127 175.059C137.088 175.059 136.995 175.054 136.849 175.044C136.702 175.034 136.507 175.02 136.263 175C136.019 174.98 135.804 174.966 135.618 174.956C135.433 174.946 135.276 174.941 135.149 174.941C135.022 174.941 134.847 174.946 134.622 174.956C134.407 174.966 134.183 174.98 133.948 175C133.724 175.01 133.519 175.02 133.333 175.029C133.147 175.049 133.025 175.059 132.967 175.059C132.947 175.029 132.933 174.971 132.923 174.883C132.913 174.795 132.913 174.712 132.923 174.634C132.942 174.556 132.962 174.517 132.981 174.517C133.06 174.517 133.172 174.497 133.318 174.458C133.465 174.419 133.602 174.37 133.729 174.312C133.855 174.243 133.929 174.185 133.948 174.136C134.007 173.911 134.036 173.525 134.036 172.979V170.532L134.007 170.474L132.293 170.444C131.082 170.454 130.477 170.469 130.477 170.488L130.506 170.518V172.92C130.506 173.174 130.516 173.403 130.535 173.608C130.555 173.813 130.584 173.994 130.623 174.15C130.643 174.189 130.711 174.238 130.828 174.297C130.955 174.355 131.087 174.409 131.224 174.458C131.37 174.497 131.473 174.517 131.531 174.517C131.57 174.517 131.59 174.59 131.59 174.736C131.6 174.883 131.59 174.99 131.561 175.059C131.082 175.029 130.677 175.005 130.345 174.985C130.022 174.956 129.729 174.941 129.466 174.941C129.144 174.941 128.816 174.956 128.484 174.985C128.162 175.005 127.801 175.029 127.4 175.059ZM146.81 175.073C146.702 175.073 146.551 174.961 146.355 174.736L140.394 167.324V172.935C140.394 173.452 140.433 173.799 140.511 173.975C140.569 174.082 140.687 174.18 140.862 174.268C141.038 174.346 141.219 174.404 141.404 174.443C141.59 174.482 141.731 174.502 141.829 174.502C141.849 174.502 141.863 174.546 141.873 174.634C141.883 174.712 141.888 174.795 141.888 174.883C141.888 174.971 141.878 175.029 141.858 175.059C141.39 175.059 140.989 175.039 140.657 175C140.335 174.961 140.076 174.941 139.881 174.941C139.646 174.941 139.461 174.946 139.324 174.956C139.188 174.966 139.031 174.98 138.855 175C138.689 175.02 138.426 175.039 138.064 175.059C138.035 175.029 138.021 174.941 138.021 174.795C138.021 174.609 138.035 174.517 138.064 174.517C138.289 174.517 138.523 174.473 138.768 174.385C139.021 174.287 139.202 174.146 139.31 173.96C139.407 173.804 139.456 173.447 139.456 172.891V167.134C139.456 166.626 139.383 166.279 139.236 166.094C139.207 166.045 139.114 166.006 138.958 165.977C138.812 165.938 138.65 165.908 138.475 165.889C138.309 165.859 138.177 165.845 138.079 165.845C138.06 165.845 138.04 165.806 138.021 165.728C138.011 165.649 138.006 165.566 138.006 165.479C138.016 165.381 138.03 165.322 138.05 165.303L138.987 165.361C139.212 165.381 139.412 165.396 139.588 165.405C139.773 165.415 139.93 165.42 140.057 165.42C140.223 165.42 140.423 165.41 140.657 165.391C140.901 165.371 141.18 165.342 141.492 165.303C141.688 165.693 141.956 166.123 142.298 166.592C142.649 167.061 143.04 167.559 143.47 168.086C143.909 168.604 144.358 169.141 144.817 169.697C145.286 170.254 145.73 170.811 146.15 171.367C146.16 171.328 146.165 171.26 146.165 171.162C146.175 171.064 146.18 170.933 146.18 170.767V167.324C146.18 166.758 146.116 166.406 145.989 166.27C145.931 166.191 145.823 166.123 145.667 166.064C145.521 165.996 145.364 165.942 145.198 165.903C145.042 165.864 144.925 165.845 144.847 165.845C144.827 165.845 144.808 165.806 144.788 165.728C144.778 165.649 144.773 165.566 144.773 165.479C144.773 165.381 144.783 165.322 144.803 165.303C145.252 165.342 145.638 165.371 145.96 165.391C146.282 165.41 146.541 165.42 146.736 165.42C146.902 165.42 147.112 165.41 147.366 165.391C147.62 165.371 147.859 165.352 148.084 165.332C148.318 165.312 148.475 165.303 148.553 165.303C148.592 165.371 148.611 165.459 148.611 165.566C148.611 165.752 148.587 165.845 148.538 165.845C148.011 165.845 147.605 166.006 147.322 166.328C147.186 166.494 147.117 166.851 147.117 167.397V172.964C147.117 173.14 147.122 173.398 147.132 173.74C147.142 174.082 147.156 174.507 147.176 175.015C147.137 175.054 147.015 175.073 146.81 175.073ZM150.823 173.696C149.896 172.72 149.432 171.553 149.432 170.195C149.432 169.512 149.554 168.872 149.798 168.276C150.042 167.671 150.379 167.144 150.809 166.694C151.248 166.235 151.751 165.879 152.317 165.625C152.884 165.361 153.489 165.229 154.134 165.229C154.778 165.229 155.384 165.361 155.95 165.625C156.526 165.879 157.029 166.235 157.459 166.694C157.889 167.144 158.226 167.671 158.47 168.276C158.724 168.872 158.851 169.512 158.851 170.195C158.851 171.553 158.387 172.72 157.459 173.696C156.824 174.36 156.111 174.8 155.32 175.015C154.529 175.239 153.738 175.239 152.947 175.015C152.166 174.8 151.458 174.36 150.823 173.696ZM154.368 174.326C154.856 174.326 155.262 174.155 155.584 173.813C155.916 173.472 156.16 173.013 156.316 172.437C156.482 171.851 156.565 171.196 156.565 170.474C156.565 169.937 156.521 169.424 156.434 168.936C156.355 168.447 156.224 167.979 156.038 167.529C155.853 167.07 155.579 166.709 155.218 166.445C154.856 166.182 154.422 166.05 153.914 166.05C153.396 166.05 152.967 166.235 152.625 166.606C152.283 166.987 152.044 167.451 151.907 167.998C151.78 168.545 151.717 169.17 151.717 169.873C151.717 170.869 151.907 171.831 152.288 172.759C152.483 173.228 152.757 173.608 153.108 173.901C153.47 174.185 153.89 174.326 154.368 174.326ZM162.806 175.059C162.767 175.02 162.747 174.937 162.747 174.81C162.747 174.614 162.767 174.517 162.806 174.517C162.884 174.517 162.996 174.502 163.143 174.473C163.289 174.443 163.426 174.404 163.553 174.355C163.68 174.297 163.753 174.243 163.772 174.194C163.831 173.97 163.86 173.54 163.86 172.905V167.368C163.86 166.821 163.831 166.44 163.772 166.226C163.753 166.167 163.675 166.108 163.538 166.05C163.411 165.981 163.274 165.928 163.128 165.889C162.981 165.84 162.869 165.815 162.791 165.815C162.752 165.815 162.732 165.728 162.732 165.552C162.732 165.396 162.747 165.303 162.776 165.273C163.167 165.293 163.538 165.312 163.89 165.332C164.251 165.342 164.598 165.347 164.93 165.347C165.359 165.347 166.116 165.332 167.2 165.303C167.747 165.293 168.226 165.288 168.636 165.288C169.046 165.278 169.388 165.273 169.661 165.273C169.671 165.322 169.71 165.527 169.778 165.889C169.847 166.25 169.949 166.768 170.086 167.441C170.037 167.49 169.925 167.515 169.749 167.515C169.642 167.515 169.573 167.48 169.544 167.412C169.427 167.158 169.251 166.934 169.017 166.738C168.792 166.533 168.543 166.372 168.27 166.255C168.006 166.128 167.747 166.064 167.493 166.064H166.937C166.312 166.064 165.994 166.128 165.984 166.255C165.965 166.372 165.945 166.528 165.926 166.724C165.916 166.909 165.911 167.134 165.911 167.397V169.653C165.911 169.712 166.121 169.741 166.541 169.741H167.317C167.933 169.741 168.265 169.722 168.313 169.683C168.362 169.634 168.401 169.492 168.431 169.258C168.45 169.102 168.479 168.96 168.519 168.833C168.528 168.765 168.602 168.73 168.738 168.73C168.904 168.73 169.012 168.755 169.061 168.804V171.572C169.021 171.611 168.919 171.631 168.753 171.631C168.626 171.631 168.548 171.592 168.519 171.514C168.401 171.133 168.323 170.898 168.284 170.811C168.245 170.742 168.216 170.713 168.196 170.723C168.187 170.723 168.157 170.703 168.108 170.664C167.972 170.586 167.591 170.547 166.966 170.547C166.263 170.547 165.911 170.591 165.911 170.679V172.935C165.911 173.394 165.95 173.74 166.028 173.975C166.067 174.131 166.399 174.209 167.024 174.209H167.405C168.011 174.209 168.558 174.082 169.046 173.828C169.212 173.74 169.397 173.574 169.603 173.33C169.817 173.086 169.983 172.812 170.101 172.51C170.12 172.451 170.188 172.422 170.306 172.422C170.54 172.422 170.687 172.451 170.745 172.51C170.257 173.857 169.993 174.697 169.954 175.029C169.71 175.029 169.388 175.024 168.987 175.015C168.597 175.015 168.128 175.01 167.581 175C167.044 174.99 166.556 174.98 166.116 174.971C165.677 174.951 165.286 174.951 164.944 174.971L162.806 175.059ZM180.311 175.073C180.203 175.073 180.052 174.961 179.856 174.736L173.895 167.324V172.935C173.895 173.452 173.934 173.799 174.012 173.975C174.07 174.082 174.188 174.18 174.363 174.268C174.539 174.346 174.72 174.404 174.905 174.443C175.091 174.482 175.232 174.502 175.33 174.502C175.35 174.502 175.364 174.546 175.374 174.634C175.384 174.712 175.389 174.795 175.389 174.883C175.389 174.971 175.379 175.029 175.359 175.059C174.891 175.059 174.49 175.039 174.158 175C173.836 174.961 173.577 174.941 173.382 174.941C173.147 174.941 172.962 174.946 172.825 174.956C172.688 174.966 172.532 174.98 172.356 175C172.19 175.02 171.927 175.039 171.565 175.059C171.536 175.029 171.521 174.941 171.521 174.795C171.521 174.609 171.536 174.517 171.565 174.517C171.79 174.517 172.024 174.473 172.269 174.385C172.522 174.287 172.703 174.146 172.811 173.96C172.908 173.804 172.957 173.447 172.957 172.891V167.134C172.957 166.626 172.884 166.279 172.737 166.094C172.708 166.045 172.615 166.006 172.459 165.977C172.312 165.938 172.151 165.908 171.976 165.889C171.81 165.859 171.678 165.845 171.58 165.845C171.561 165.845 171.541 165.806 171.521 165.728C171.512 165.649 171.507 165.566 171.507 165.479C171.517 165.381 171.531 165.322 171.551 165.303L172.488 165.361C172.713 165.381 172.913 165.396 173.089 165.405C173.274 165.415 173.431 165.42 173.558 165.42C173.724 165.42 173.924 165.41 174.158 165.391C174.402 165.371 174.681 165.342 174.993 165.303C175.188 165.693 175.457 166.123 175.799 166.592C176.15 167.061 176.541 167.559 176.971 168.086C177.41 168.604 177.859 169.141 178.318 169.697C178.787 170.254 179.231 170.811 179.651 171.367C179.661 171.328 179.666 171.26 179.666 171.162C179.676 171.064 179.681 170.933 179.681 170.767V167.324C179.681 166.758 179.617 166.406 179.49 166.27C179.432 166.191 179.324 166.123 179.168 166.064C179.021 165.996 178.865 165.942 178.699 165.903C178.543 165.864 178.426 165.845 178.348 165.845C178.328 165.845 178.309 165.806 178.289 165.728C178.279 165.649 178.274 165.566 178.274 165.479C178.274 165.381 178.284 165.322 178.304 165.303C178.753 165.342 179.139 165.371 179.461 165.391C179.783 165.41 180.042 165.42 180.237 165.42C180.403 165.42 180.613 165.41 180.867 165.391C181.121 165.371 181.36 165.352 181.585 165.332C181.819 165.312 181.976 165.303 182.054 165.303C182.093 165.371 182.112 165.459 182.112 165.566C182.112 165.752 182.088 165.845 182.039 165.845C181.512 165.845 181.106 166.006 180.823 166.328C180.687 166.494 180.618 166.851 180.618 167.397V172.964C180.618 173.14 180.623 173.398 180.633 173.74C180.643 174.082 180.657 174.507 180.677 175.015C180.638 175.054 180.516 175.073 180.311 175.073ZM187.518 175.132C186.873 175.132 186.268 175.005 185.701 174.751C185.145 174.497 184.651 174.146 184.222 173.696C183.792 173.247 183.455 172.729 183.211 172.144C182.977 171.558 182.859 170.938 182.859 170.283C182.859 169.59 182.981 168.94 183.226 168.335C183.479 167.729 183.826 167.192 184.266 166.724C184.705 166.255 185.213 165.889 185.789 165.625C186.375 165.361 187.005 165.229 187.679 165.229C188.216 165.229 188.763 165.269 189.319 165.347C189.876 165.415 190.447 165.518 191.033 165.654C191.062 165.654 191.092 165.767 191.121 165.991C191.16 166.206 191.199 166.465 191.238 166.768C191.277 167.061 191.307 167.334 191.326 167.588C191.355 167.832 191.37 167.988 191.37 168.057C191.37 168.135 191.282 168.174 191.106 168.174C190.921 168.174 190.77 168.149 190.652 168.101C190.604 167.915 190.525 167.725 190.418 167.529C190.311 167.334 190.149 167.114 189.935 166.87C189.72 166.626 189.422 166.431 189.041 166.284C188.66 166.128 188.23 166.05 187.752 166.05C185.994 166.05 185.115 167.349 185.115 169.946C185.115 170.659 185.213 171.338 185.408 171.982C185.535 172.402 185.726 172.788 185.979 173.14C186.243 173.491 186.561 173.774 186.932 173.989C187.312 174.204 187.742 174.312 188.221 174.312C188.66 174.312 188.973 174.233 189.158 174.077C189.266 173.989 189.319 173.843 189.319 173.638V172.612C189.319 172.095 189.285 171.719 189.217 171.484C189.148 171.221 188.826 171.089 188.25 171.089C188.23 171.089 188.211 171.05 188.191 170.972C188.182 170.894 188.182 170.811 188.191 170.723C188.201 170.625 188.216 170.566 188.235 170.547C188.626 170.566 189.017 170.586 189.407 170.605C189.798 170.625 190.135 170.635 190.418 170.635C190.564 170.635 191.224 170.605 192.396 170.547C192.425 170.635 192.439 170.732 192.439 170.84C192.439 171.016 192.42 171.104 192.381 171.104C192.156 171.104 191.897 171.177 191.604 171.323C191.448 171.392 191.37 171.777 191.37 172.48V173.33C191.37 173.506 191.385 173.638 191.414 173.726C191.443 173.813 191.458 173.867 191.458 173.887C191.458 174.053 191.355 174.189 191.15 174.297C190.789 174.482 190.511 174.614 190.315 174.692C190.11 174.78 189.749 174.878 189.231 174.985C188.724 175.083 188.152 175.132 187.518 175.132ZM193.26 175.059C193.221 175.02 193.201 174.941 193.201 174.824C193.201 174.619 193.216 174.517 193.245 174.517C193.323 174.517 193.436 174.497 193.582 174.458C193.729 174.419 193.865 174.37 193.992 174.312C194.119 174.253 194.192 174.199 194.212 174.15C194.251 174.014 194.275 173.848 194.285 173.652C194.305 173.457 194.314 173.232 194.314 172.979V167.354C194.314 166.729 194.275 166.348 194.197 166.211C194.168 166.152 194.09 166.099 193.963 166.05C193.846 165.991 193.724 165.942 193.597 165.903C193.47 165.864 193.367 165.845 193.289 165.845C193.25 165.845 193.23 165.762 193.23 165.596C193.23 165.42 193.24 165.322 193.26 165.303L193.963 165.347C194.178 165.366 194.354 165.381 194.49 165.391C194.627 165.4 194.759 165.405 194.886 165.405C195.022 165.396 195.188 165.391 195.384 165.391C195.579 165.391 196.263 165.361 197.435 165.303C197.464 165.391 197.479 165.479 197.479 165.566C197.479 165.752 197.459 165.845 197.42 165.845C197.361 165.845 197.259 165.864 197.112 165.903C196.966 165.942 196.824 165.991 196.688 166.05C196.561 166.099 196.487 166.147 196.468 166.196C196.438 166.313 196.414 166.479 196.395 166.694C196.375 166.899 196.365 167.075 196.365 167.222V172.861C196.365 173.135 196.375 173.379 196.395 173.594C196.414 173.809 196.443 173.994 196.482 174.15C196.502 174.189 196.57 174.238 196.688 174.297C196.814 174.355 196.946 174.409 197.083 174.458C197.229 174.497 197.332 174.517 197.391 174.517C197.43 174.517 197.449 174.609 197.449 174.795C197.449 174.893 197.439 174.98 197.42 175.059C197.381 175.059 197.288 175.054 197.142 175.044C196.995 175.034 196.795 175.02 196.541 175C196.287 174.98 196.062 174.966 195.867 174.956C195.672 174.946 195.511 174.941 195.384 174.941C195.208 174.941 194.969 174.951 194.666 174.971C194.363 174.99 194.075 175.005 193.802 175.015C193.538 175.034 193.357 175.049 193.26 175.059ZM207.088 175.073C206.98 175.073 206.829 174.961 206.634 174.736L200.672 167.324V172.935C200.672 173.452 200.711 173.799 200.789 173.975C200.848 174.082 200.965 174.18 201.141 174.268C201.316 174.346 201.497 174.404 201.683 174.443C201.868 174.482 202.01 174.502 202.107 174.502C202.127 174.502 202.142 174.546 202.151 174.634C202.161 174.712 202.166 174.795 202.166 174.883C202.166 174.971 202.156 175.029 202.137 175.059C201.668 175.059 201.268 175.039 200.936 175C200.613 174.961 200.354 174.941 200.159 174.941C199.925 174.941 199.739 174.946 199.603 174.956C199.466 174.966 199.31 174.98 199.134 175C198.968 175.02 198.704 175.039 198.343 175.059C198.313 175.029 198.299 174.941 198.299 174.795C198.299 174.609 198.313 174.517 198.343 174.517C198.567 174.517 198.802 174.473 199.046 174.385C199.3 174.287 199.48 174.146 199.588 173.96C199.686 173.804 199.734 173.447 199.734 172.891V167.134C199.734 166.626 199.661 166.279 199.515 166.094C199.485 166.045 199.393 166.006 199.236 165.977C199.09 165.938 198.929 165.908 198.753 165.889C198.587 165.859 198.455 165.845 198.357 165.845C198.338 165.845 198.318 165.806 198.299 165.728C198.289 165.649 198.284 165.566 198.284 165.479C198.294 165.381 198.309 165.322 198.328 165.303L199.266 165.361C199.49 165.381 199.69 165.396 199.866 165.405C200.052 165.415 200.208 165.42 200.335 165.42C200.501 165.42 200.701 165.41 200.936 165.391C201.18 165.371 201.458 165.342 201.771 165.303C201.966 165.693 202.234 166.123 202.576 166.592C202.928 167.061 203.318 167.559 203.748 168.086C204.188 168.604 204.637 169.141 205.096 169.697C205.564 170.254 206.009 170.811 206.429 171.367C206.438 171.328 206.443 171.26 206.443 171.162C206.453 171.064 206.458 170.933 206.458 170.767V167.324C206.458 166.758 206.395 166.406 206.268 166.27C206.209 166.191 206.102 166.123 205.945 166.064C205.799 165.996 205.643 165.942 205.477 165.903C205.32 165.864 205.203 165.845 205.125 165.845C205.105 165.845 205.086 165.806 205.066 165.728C205.057 165.649 205.052 165.566 205.052 165.479C205.052 165.381 205.062 165.322 205.081 165.303C205.53 165.342 205.916 165.371 206.238 165.391C206.561 165.41 206.819 165.42 207.015 165.42C207.181 165.42 207.391 165.41 207.645 165.391C207.898 165.371 208.138 165.352 208.362 165.332C208.597 165.312 208.753 165.303 208.831 165.303C208.87 165.371 208.89 165.459 208.89 165.566C208.89 165.752 208.865 165.845 208.816 165.845C208.289 165.845 207.884 166.006 207.601 166.328C207.464 166.494 207.396 166.851 207.396 167.397V172.964C207.396 173.14 207.4 173.398 207.41 173.74C207.42 174.082 207.435 174.507 207.454 175.015C207.415 175.054 207.293 175.073 207.088 175.073ZM209.725 175.059C209.686 175.02 209.666 174.937 209.666 174.81C209.666 174.614 209.686 174.517 209.725 174.517C209.803 174.517 209.915 174.502 210.062 174.473C210.208 174.443 210.345 174.404 210.472 174.355C210.599 174.297 210.672 174.243 210.691 174.194C210.75 173.97 210.779 173.54 210.779 172.905V167.368C210.779 166.821 210.75 166.44 210.691 166.226C210.672 166.167 210.594 166.108 210.457 166.05C210.33 165.981 210.193 165.928 210.047 165.889C209.9 165.84 209.788 165.815 209.71 165.815C209.671 165.815 209.651 165.728 209.651 165.552C209.651 165.396 209.666 165.303 209.695 165.273C210.086 165.293 210.457 165.312 210.809 165.332C211.17 165.342 211.517 165.347 211.849 165.347C212.278 165.347 213.035 165.332 214.119 165.303C214.666 165.293 215.145 165.288 215.555 165.288C215.965 165.278 216.307 165.273 216.58 165.273C216.59 165.322 216.629 165.527 216.697 165.889C216.766 166.25 216.868 166.768 217.005 167.441C216.956 167.49 216.844 167.515 216.668 167.515C216.561 167.515 216.492 167.48 216.463 167.412C216.346 167.158 216.17 166.934 215.936 166.738C215.711 166.533 215.462 166.372 215.188 166.255C214.925 166.128 214.666 166.064 214.412 166.064H213.855C213.23 166.064 212.913 166.128 212.903 166.255C212.884 166.372 212.864 166.528 212.845 166.724C212.835 166.909 212.83 167.134 212.83 167.397V169.653C212.83 169.712 213.04 169.741 213.46 169.741H214.236C214.852 169.741 215.184 169.722 215.232 169.683C215.281 169.634 215.32 169.492 215.35 169.258C215.369 169.102 215.398 168.96 215.438 168.833C215.447 168.765 215.521 168.73 215.657 168.73C215.823 168.73 215.931 168.755 215.979 168.804V171.572C215.94 171.611 215.838 171.631 215.672 171.631C215.545 171.631 215.467 171.592 215.438 171.514C215.32 171.133 215.242 170.898 215.203 170.811C215.164 170.742 215.135 170.713 215.115 170.723C215.105 170.723 215.076 170.703 215.027 170.664C214.891 170.586 214.51 170.547 213.885 170.547C213.182 170.547 212.83 170.591 212.83 170.679V172.935C212.83 173.394 212.869 173.74 212.947 173.975C212.986 174.131 213.318 174.209 213.943 174.209H214.324C214.93 174.209 215.477 174.082 215.965 173.828C216.131 173.74 216.316 173.574 216.521 173.33C216.736 173.086 216.902 172.812 217.02 172.51C217.039 172.451 217.107 172.422 217.225 172.422C217.459 172.422 217.605 172.451 217.664 172.51C217.176 173.857 216.912 174.697 216.873 175.029C216.629 175.029 216.307 175.024 215.906 175.015C215.516 175.015 215.047 175.01 214.5 175C213.963 174.99 213.475 174.98 213.035 174.971C212.596 174.951 212.205 174.951 211.863 174.971L209.725 175.059ZM218.484 175.059C218.445 175.02 218.426 174.937 218.426 174.81C218.426 174.614 218.445 174.517 218.484 174.517C218.562 174.517 218.675 174.502 218.821 174.473C218.968 174.443 219.104 174.404 219.231 174.355C219.358 174.297 219.432 174.243 219.451 174.194C219.51 173.97 219.539 173.54 219.539 172.905V167.368C219.539 166.821 219.51 166.44 219.451 166.226C219.432 166.167 219.354 166.108 219.217 166.05C219.09 165.981 218.953 165.928 218.807 165.889C218.66 165.84 218.548 165.815 218.47 165.815C218.431 165.815 218.411 165.728 218.411 165.552C218.411 165.396 218.426 165.303 218.455 165.273C218.846 165.293 219.217 165.312 219.568 165.332C219.93 165.342 220.276 165.347 220.608 165.347C221.038 165.347 221.795 165.332 222.879 165.303C223.426 165.293 223.904 165.288 224.314 165.288C224.725 165.278 225.066 165.273 225.34 165.273C225.35 165.322 225.389 165.527 225.457 165.889C225.525 166.25 225.628 166.768 225.765 167.441C225.716 167.49 225.604 167.515 225.428 167.515C225.32 167.515 225.252 167.48 225.223 167.412C225.105 167.158 224.93 166.934 224.695 166.738C224.471 166.533 224.222 166.372 223.948 166.255C223.685 166.128 223.426 166.064 223.172 166.064H222.615C221.99 166.064 221.673 166.128 221.663 166.255C221.644 166.372 221.624 166.528 221.604 166.724C221.595 166.909 221.59 167.134 221.59 167.397V169.653C221.59 169.712 221.8 169.741 222.22 169.741H222.996C223.611 169.741 223.943 169.722 223.992 169.683C224.041 169.634 224.08 169.492 224.109 169.258C224.129 169.102 224.158 168.96 224.197 168.833C224.207 168.765 224.28 168.73 224.417 168.73C224.583 168.73 224.69 168.755 224.739 168.804V171.572C224.7 171.611 224.598 171.631 224.432 171.631C224.305 171.631 224.227 171.592 224.197 171.514C224.08 171.133 224.002 170.898 223.963 170.811C223.924 170.742 223.895 170.713 223.875 170.723C223.865 170.723 223.836 170.703 223.787 170.664C223.65 170.586 223.27 170.547 222.645 170.547C221.941 170.547 221.59 170.591 221.59 170.679V172.935C221.59 173.394 221.629 173.74 221.707 173.975C221.746 174.131 222.078 174.209 222.703 174.209H223.084C223.689 174.209 224.236 174.082 224.725 173.828C224.891 173.74 225.076 173.574 225.281 173.33C225.496 173.086 225.662 172.812 225.779 172.51C225.799 172.451 225.867 172.422 225.984 172.422C226.219 172.422 226.365 172.451 226.424 172.51C225.936 173.857 225.672 174.697 225.633 175.029C225.389 175.029 225.066 175.024 224.666 175.015C224.275 175.015 223.807 175.01 223.26 175C222.723 174.99 222.234 174.98 221.795 174.971C221.355 174.951 220.965 174.951 220.623 174.971L218.484 175.059ZM236.136 175.103C235.657 175.103 235.218 175.059 234.817 174.971C234.427 174.873 234.114 174.766 233.88 174.648C233.636 174.531 233.396 174.355 233.162 174.121C233.045 174.004 232.938 173.892 232.84 173.784C232.742 173.677 232.635 173.545 232.518 173.389C232.41 173.223 232.269 173.008 232.093 172.744C231.917 172.471 231.688 172.109 231.404 171.66C231.023 171.084 230.77 170.771 230.643 170.723C230.623 170.713 230.569 170.708 230.481 170.708C230.394 170.708 230.35 170.786 230.35 170.942V172.935C230.35 173.452 230.384 173.853 230.452 174.136C230.472 174.214 230.555 174.282 230.701 174.341C230.848 174.399 231.009 174.443 231.185 174.473C231.36 174.502 231.497 174.517 231.595 174.517C231.634 174.517 231.653 174.609 231.653 174.795C231.653 174.893 231.644 174.98 231.624 175.059C231.038 175.029 230.56 175.005 230.188 174.985C229.817 174.966 229.549 174.961 229.383 174.971L227.244 175.059C227.205 175.02 227.186 174.937 227.186 174.81C227.186 174.614 227.205 174.517 227.244 174.517C227.322 174.517 227.435 174.502 227.581 174.473C227.728 174.443 227.864 174.404 227.991 174.355C228.118 174.297 228.191 174.243 228.211 174.194C228.27 173.97 228.299 173.54 228.299 172.905V167.368C228.299 166.821 228.27 166.44 228.211 166.226C228.191 166.167 228.113 166.108 227.977 166.05C227.85 165.981 227.713 165.928 227.566 165.889C227.42 165.84 227.308 165.815 227.229 165.815C227.19 165.815 227.171 165.728 227.171 165.552C227.171 165.396 227.186 165.303 227.215 165.273C227.664 165.293 228.064 165.312 228.416 165.332C228.777 165.342 229.095 165.347 229.368 165.347C229.837 165.337 230.203 165.332 230.467 165.332C230.73 165.332 230.931 165.332 231.067 165.332C231.204 165.332 231.321 165.332 231.419 165.332C231.81 165.332 232.2 165.381 232.591 165.479C232.991 165.576 233.357 165.728 233.689 165.933C234.021 166.128 234.285 166.382 234.48 166.694C234.686 166.997 234.788 167.363 234.788 167.793C234.788 168.223 234.7 168.623 234.524 168.994C234.349 169.365 234.119 169.678 233.836 169.932C233.562 170.186 233.279 170.361 232.986 170.459C232.908 170.488 232.894 170.542 232.942 170.62C233.157 170.981 233.323 171.255 233.44 171.44C233.558 171.626 233.655 171.777 233.733 171.895C233.821 172.002 233.924 172.139 234.041 172.305C234.158 172.461 234.324 172.7 234.539 173.022C234.705 173.257 234.9 173.491 235.125 173.726C235.359 173.95 235.608 174.141 235.872 174.297C236.146 174.443 236.404 174.517 236.648 174.517C236.688 174.556 236.707 174.644 236.707 174.78C236.707 174.897 236.688 174.995 236.648 175.073C236.58 175.083 236.502 175.088 236.414 175.088C236.336 175.098 236.243 175.103 236.136 175.103ZM230.965 169.902H231.36C231.741 169.902 232.034 169.736 232.239 169.404C232.454 169.072 232.562 168.633 232.562 168.086C232.562 166.787 232.107 166.138 231.199 166.138C230.857 166.138 230.633 166.177 230.525 166.255C230.408 166.343 230.35 166.821 230.35 167.69V169.272C230.35 169.546 230.403 169.722 230.511 169.8C230.628 169.868 230.779 169.902 230.965 169.902ZM237.22 175.059C237.181 175.02 237.161 174.941 237.161 174.824C237.161 174.619 237.176 174.517 237.205 174.517C237.283 174.517 237.396 174.497 237.542 174.458C237.688 174.419 237.825 174.37 237.952 174.312C238.079 174.253 238.152 174.199 238.172 174.15C238.211 174.014 238.235 173.848 238.245 173.652C238.265 173.457 238.274 173.232 238.274 172.979V167.354C238.274 166.729 238.235 166.348 238.157 166.211C238.128 166.152 238.05 166.099 237.923 166.05C237.806 165.991 237.684 165.942 237.557 165.903C237.43 165.864 237.327 165.845 237.249 165.845C237.21 165.845 237.19 165.762 237.19 165.596C237.19 165.42 237.2 165.322 237.22 165.303L237.923 165.347C238.138 165.366 238.313 165.381 238.45 165.391C238.587 165.4 238.719 165.405 238.846 165.405C238.982 165.396 239.148 165.391 239.344 165.391C239.539 165.391 240.223 165.361 241.395 165.303C241.424 165.391 241.438 165.479 241.438 165.566C241.438 165.752 241.419 165.845 241.38 165.845C241.321 165.845 241.219 165.864 241.072 165.903C240.926 165.942 240.784 165.991 240.647 166.05C240.521 166.099 240.447 166.147 240.428 166.196C240.398 166.313 240.374 166.479 240.354 166.694C240.335 166.899 240.325 167.075 240.325 167.222V172.861C240.325 173.135 240.335 173.379 240.354 173.594C240.374 173.809 240.403 173.994 240.442 174.15C240.462 174.189 240.53 174.238 240.647 174.297C240.774 174.355 240.906 174.409 241.043 174.458C241.189 174.497 241.292 174.517 241.351 174.517C241.39 174.517 241.409 174.609 241.409 174.795C241.409 174.893 241.399 174.98 241.38 175.059C241.341 175.059 241.248 175.054 241.102 175.044C240.955 175.034 240.755 175.02 240.501 175C240.247 174.98 240.022 174.966 239.827 174.956C239.632 174.946 239.471 174.941 239.344 174.941C239.168 174.941 238.929 174.951 238.626 174.971C238.323 174.99 238.035 175.005 237.762 175.015C237.498 175.034 237.317 175.049 237.22 175.059ZM251.048 175.073C250.94 175.073 250.789 174.961 250.594 174.736L244.632 167.324V172.935C244.632 173.452 244.671 173.799 244.749 173.975C244.808 174.082 244.925 174.18 245.101 174.268C245.276 174.346 245.457 174.404 245.643 174.443C245.828 174.482 245.97 174.502 246.067 174.502C246.087 174.502 246.102 174.546 246.111 174.634C246.121 174.712 246.126 174.795 246.126 174.883C246.126 174.971 246.116 175.029 246.097 175.059C245.628 175.059 245.228 175.039 244.896 175C244.573 174.961 244.314 174.941 244.119 174.941C243.885 174.941 243.699 174.946 243.562 174.956C243.426 174.966 243.27 174.98 243.094 175C242.928 175.02 242.664 175.039 242.303 175.059C242.273 175.029 242.259 174.941 242.259 174.795C242.259 174.609 242.273 174.517 242.303 174.517C242.527 174.517 242.762 174.473 243.006 174.385C243.26 174.287 243.44 174.146 243.548 173.96C243.646 173.804 243.694 173.447 243.694 172.891V167.134C243.694 166.626 243.621 166.279 243.475 166.094C243.445 166.045 243.353 166.006 243.196 165.977C243.05 165.938 242.889 165.908 242.713 165.889C242.547 165.859 242.415 165.845 242.317 165.845C242.298 165.845 242.278 165.806 242.259 165.728C242.249 165.649 242.244 165.566 242.244 165.479C242.254 165.381 242.269 165.322 242.288 165.303L243.226 165.361C243.45 165.381 243.65 165.396 243.826 165.405C244.012 165.415 244.168 165.42 244.295 165.42C244.461 165.42 244.661 165.41 244.896 165.391C245.14 165.371 245.418 165.342 245.73 165.303C245.926 165.693 246.194 166.123 246.536 166.592C246.888 167.061 247.278 167.559 247.708 168.086C248.147 168.604 248.597 169.141 249.056 169.697C249.524 170.254 249.969 170.811 250.389 171.367C250.398 171.328 250.403 171.26 250.403 171.162C250.413 171.064 250.418 170.933 250.418 170.767V167.324C250.418 166.758 250.354 166.406 250.228 166.27C250.169 166.191 250.062 166.123 249.905 166.064C249.759 165.996 249.603 165.942 249.437 165.903C249.28 165.864 249.163 165.845 249.085 165.845C249.065 165.845 249.046 165.806 249.026 165.728C249.017 165.649 249.012 165.566 249.012 165.479C249.012 165.381 249.021 165.322 249.041 165.303C249.49 165.342 249.876 165.371 250.198 165.391C250.521 165.41 250.779 165.42 250.975 165.42C251.141 165.42 251.351 165.41 251.604 165.391C251.858 165.371 252.098 165.352 252.322 165.332C252.557 165.312 252.713 165.303 252.791 165.303C252.83 165.371 252.85 165.459 252.85 165.566C252.85 165.752 252.825 165.845 252.776 165.845C252.249 165.845 251.844 166.006 251.561 166.328C251.424 166.494 251.355 166.851 251.355 167.397V172.964C251.355 173.14 251.36 173.398 251.37 173.74C251.38 174.082 251.395 174.507 251.414 175.015C251.375 175.054 251.253 175.073 251.048 175.073ZM258.255 175.132C257.61 175.132 257.005 175.005 256.438 174.751C255.882 174.497 255.389 174.146 254.959 173.696C254.529 173.247 254.192 172.729 253.948 172.144C253.714 171.558 253.597 170.938 253.597 170.283C253.597 169.59 253.719 168.94 253.963 168.335C254.217 167.729 254.563 167.192 255.003 166.724C255.442 166.255 255.95 165.889 256.526 165.625C257.112 165.361 257.742 165.229 258.416 165.229C258.953 165.229 259.5 165.269 260.057 165.347C260.613 165.415 261.185 165.518 261.771 165.654C261.8 165.654 261.829 165.767 261.858 165.991C261.897 166.206 261.937 166.465 261.976 166.768C262.015 167.061 262.044 167.334 262.063 167.588C262.093 167.832 262.107 167.988 262.107 168.057C262.107 168.135 262.02 168.174 261.844 168.174C261.658 168.174 261.507 168.149 261.39 168.101C261.341 167.915 261.263 167.725 261.155 167.529C261.048 167.334 260.887 167.114 260.672 166.87C260.457 166.626 260.159 166.431 259.778 166.284C259.397 166.128 258.968 166.05 258.489 166.05C256.731 166.05 255.853 167.349 255.853 169.946C255.853 170.659 255.95 171.338 256.146 171.982C256.272 172.402 256.463 172.788 256.717 173.14C256.98 173.491 257.298 173.774 257.669 173.989C258.05 174.204 258.479 174.312 258.958 174.312C259.397 174.312 259.71 174.233 259.896 174.077C260.003 173.989 260.057 173.843 260.057 173.638V172.612C260.057 172.095 260.022 171.719 259.954 171.484C259.886 171.221 259.563 171.089 258.987 171.089C258.968 171.089 258.948 171.05 258.929 170.972C258.919 170.894 258.919 170.811 258.929 170.723C258.938 170.625 258.953 170.566 258.973 170.547C259.363 170.566 259.754 170.586 260.145 170.605C260.535 170.625 260.872 170.635 261.155 170.635C261.302 170.635 261.961 170.605 263.133 170.547C263.162 170.635 263.177 170.732 263.177 170.84C263.177 171.016 263.157 171.104 263.118 171.104C262.894 171.104 262.635 171.177 262.342 171.323C262.186 171.392 262.107 171.777 262.107 172.48V173.33C262.107 173.506 262.122 173.638 262.151 173.726C262.181 173.813 262.195 173.867 262.195 173.887C262.195 174.053 262.093 174.189 261.888 174.297C261.526 174.482 261.248 174.614 261.053 174.692C260.848 174.78 260.486 174.878 259.969 174.985C259.461 175.083 258.89 175.132 258.255 175.132Z" fill="#303392"/>
</svg>
