<svg width="204" height="160" viewBox="0 0 204 160" fill="none" xmlns="http://www.w3.org/2000/svg">
<rect width="204" height="160" fill="#1E1E1E"/>
<rect width="204" height="160" fill="white"/>
<path d="M10 15V150H42V48L10 15Z" fill="#303392"/>
<path d="M54 46L21 10H142L110 46H95V150H69V46H54Z" fill="#303392"/>
<path d="M194 10H159L123 46V150H194V122H148V93H183V71H148V44H194V10Z" fill="#303392"/>
<path d="M21 10L54 46H69V150H95V46H110L142 10H20.5M10 150V15L42 48V150H10ZM159 10H194V44H148V71H183V93H148V122H194V150H123V46L159 10Z" stroke="#303392"/>
</svg>
